# xmcd CD database file
#
# Track frame offsets:
#	150
#	22484
#	39332
#	48416
#	65442
#	79277
#	96197
#	112208
#	120949
#	135231
#	147339
#	160649
#	167429
#	177166
#	187994
#	204634
#
# Disc length: 2931 seconds
#
# Revision: 2
# Processed by: cddbd v1.5.2PL0 Copyright (c) Steve Scherf et al.
# Submitted via: CDex 1.51
#
DISCID=d70b7110
DTITLE=Danny Gotham - Old Friends
DYEAR=2009
DGENRE=Country
TTITLE0=Colors
TTITLE1=Tarrega
TTITLE2=Annie Eyes
TTITLE3=I Hope That I Don't Fall In Love With You
TTITLE4=Pouyco Chico
TTITLE5=Dola Waltz
TTITLE6=The Banks
TTITLE7=The Odd Folk Of Ocracoke E
TTITLE8=Little Wing
TTITLE9=Sail Away Ladies
TTITLE10=Tall Buildings
TTITLE11=Little Max
TTITLE12=Lord Have Mercy
TTITLE13=Little Martha
TTITLE14=Old Ties
TTITLE15=Sheba River
EXTD=YEAR: 2009
EXTT0=
EXTT1=
EXTT2=
EXTT3=
EXTT4=
EXTT5=
EXTT6=
EXTT7=
EXTT8=
EXTT9=
EXTT10=
EXTT11=
EXTT12=
EXTT13=
EXTT14=
EXTT15=
PLAYORDER=
